<svg width="61" height="75" viewBox="0 0 61 75" fill="none" xmlns="http://www.w3.org/2000/svg">
<path d="M49.5195 56.4523C46.6113 57.1237 43.7266 55.3913 42.9541 52.5064L41.9037 48.5829C41.5132 47.1264 41.7257 45.611 42.504 44.3185C43.2804 43.0265 44.5187 42.1259 45.989 41.7865L46.2636 41.7231C47.734 41.3836 49.2394 41.6487 50.506 42.4711C51.7701 43.2921 52.6274 44.5605 52.9154 46.0427L53.6912 50.0296C54.2611 52.9593 52.4278 55.7809 49.5195 56.4523ZM46.5174 44.0749C45.6745 44.2695 44.9639 44.7851 44.5165 45.5271C44.0711 46.2687 43.9485 47.1386 44.1717 47.975L45.2222 51.8985C45.6646 53.5539 47.3202 54.5476 48.9908 54.162C50.6594 53.7767 51.7118 52.1578 51.3838 50.4759L50.608 46.489C50.442 45.6395 49.9505 44.9113 49.225 44.4401C48.4995 43.9688 47.6349 43.8169 46.7901 44.0119L46.5174 44.0749Z" fill="#00365F"/>
<path d="M9.451 56.3883C6.56797 55.6158 4.83424 52.7319 5.50655 49.822L6.42104 45.8647C6.76005 44.3953 7.65918 43.157 8.95363 42.3793C10.2476 41.6035 11.7619 41.3892 13.2194 41.7798L13.4917 41.8527C14.9493 42.2433 16.154 43.1841 16.8862 44.5049C17.6189 45.8237 17.7784 47.3456 17.3374 48.7876L16.1496 52.6759C15.2774 55.5302 12.334 57.1608 9.451 56.3883ZM12.6111 44.0503C11.7755 43.8264 10.906 43.948 10.1627 44.3932C9.41931 44.8383 8.90458 45.5494 8.70904 46.3926L7.79455 50.35C7.40802 52.0194 8.40329 53.6741 10.0575 54.1173C11.7117 54.5605 13.4009 53.6252 13.9028 51.9867L15.0895 48.1023C15.3418 47.2742 15.2496 46.4006 14.8303 45.6439C14.411 44.8872 13.7189 44.3471 12.8814 44.1227L12.6111 44.0503Z" fill="#00365F"/>
<path d="M52.8943 58.5633H46.5236C44.357 58.5633 42.3195 59.5008 40.9025 61.0783C39.1822 59.354 36.8316 58.3597 34.3576 58.3597H26.2881C23.8807 58.3597 21.6339 59.2698 19.9292 60.8943C18.52 59.4166 16.5686 58.5633 14.4744 58.5633H8.10373C3.94272 58.5633 0.556763 61.9473 0.556763 66.1083V68.2397C0.556763 69.4238 1.44338 70.4161 2.6177 70.5512L4.72952 70.7938C5.26188 70.8565 5.77662 70.9896 6.26201 71.1931C6.26984 71.197 6.28354 71.2009 6.29528 71.2068C7.87866 71.8625 9.55011 72.1952 11.2666 72.1952C12.9967 72.1952 14.6838 71.8566 16.2829 71.1872C16.553 71.0737 16.8329 70.9857 17.1206 70.9191C17.373 71.9721 18.2577 72.7902 19.3772 72.9194L22.0566 73.2286C22.7495 73.3069 23.4286 73.485 24.0941 73.761L24.098 73.7629C26.0728 74.583 28.1592 74.9999 30.2984 74.9999C32.4494 74.9999 34.5455 74.5791 36.5262 73.7512C37.1427 73.4948 37.7906 73.3245 38.4541 73.2462L41.2764 72.9194C42.4174 72.7882 43.3158 71.9388 43.5467 70.8545C43.9382 70.9289 44.3198 71.0405 44.6819 71.1931C44.6897 71.197 44.7034 71.2009 44.7152 71.2068C46.2985 71.8625 47.97 72.1952 49.6865 72.1952C51.4166 72.1952 53.1037 71.8566 54.7028 71.1872C55.1627 70.9935 55.652 70.8663 56.155 70.8095L58.3823 70.5512C59.5566 70.4161 60.4432 69.4238 60.4432 68.2417V66.1083C60.4432 61.9493 57.0573 58.5633 52.8943 58.5633ZM15.3747 69.0226C14.0654 69.5706 12.6836 69.8485 11.2646 69.8485C9.85347 69.8485 8.47952 69.5745 7.17993 69.0324C7.17211 69.0285 7.15841 69.0245 7.14666 69.0187C6.46556 68.7368 5.74335 68.5489 4.99961 68.4609L2.90541 68.2201V66.1083C2.90541 63.243 5.23839 60.9119 8.10373 60.9119H14.4744C16.0167 60.9119 17.4494 61.5813 18.428 62.7341C17.5179 64.1922 17.0423 65.8597 17.0423 67.6056V68.5372C16.4688 68.6351 15.9091 68.7975 15.3747 69.0226ZM41.2568 70.3045C41.2568 70.4494 41.1491 70.5707 41.0063 70.5864L38.1801 70.9132C37.2993 71.015 36.4362 71.2421 35.6181 71.5846C33.9251 72.2931 32.1343 72.6512 30.2965 72.6512C28.4684 72.6512 26.6854 72.295 24.9807 71.5885H24.9787C24.1273 71.2342 23.2329 71.0013 22.3228 70.8976L19.6434 70.5883C19.5005 70.5727 19.3929 70.4513 19.3929 70.3065V69.5726V67.6075C19.3929 66.0809 19.8802 64.6365 20.804 63.4289L20.806 63.4269C22.1212 61.7007 24.1195 60.7103 26.292 60.7103H34.3616C36.6104 60.7103 38.7222 61.8103 40.014 63.654C40.8282 64.8166 41.2587 66.1827 41.2587 67.6075V70.3045H41.2568ZM58.0946 68.2201L55.8849 68.4765C55.1627 68.5607 54.4601 68.7427 53.7966 69.0206C52.4872 69.5686 51.1054 69.8466 49.6865 69.8466C48.2753 69.8466 46.9014 69.5726 45.6018 69.0304C45.5939 69.0265 45.5802 69.0226 45.5685 69.0167C44.9442 68.7584 44.2846 68.5842 43.6054 68.4883V67.6056C43.6054 65.9693 43.1788 64.3879 42.3685 62.9885C43.3451 61.6948 44.8815 60.9119 46.5256 60.9119H52.8963C55.7636 60.9119 58.0946 63.243 58.0946 66.1083V68.2201Z" fill="#00365F"/>
<path d="M29.8407 56.8267C26.5262 56.8267 23.8407 54.2322 23.7256 50.9194L23.5606 46.1583C23.5022 44.4847 24.1104 42.8988 25.2754 41.6944C26.4386 40.4899 28.0022 39.8267 29.6775 39.8267H30.0091C31.6843 39.8267 33.2479 40.4899 34.4111 41.6944C35.5744 42.8988 36.1843 44.4847 36.1259 46.1583L35.961 50.9194C35.8424 54.2322 33.1551 56.8267 29.8407 56.8267ZM29.6757 41.8868C28.5658 41.8868 27.528 42.3267 26.7565 43.1256C25.985 43.9246 25.5812 44.9761 25.6207 46.0861L25.7857 50.8473C25.863 53.0432 27.6431 54.7631 29.8407 54.7631C32.0383 54.7631 33.8201 53.0432 33.8957 50.8473L34.0606 46.0861C34.0984 44.9761 33.6946 43.9246 32.9232 43.1256C32.1517 42.3267 31.1156 41.8868 30.0039 41.8868H29.6757Z" fill="#00365F"/>
<path d="M29.6215 37C29.3239 37 29.0282 36.8674 28.8021 36.6045L21.1033 27.6523H11.0893C9.14137 27.6523 7.55676 25.8097 7.55676 23.5446V4.10762C7.55676 1.84258 9.14137 0 11.0893 0H48.0242C49.9722 0 51.5568 1.84258 51.5568 4.10762V23.5469C51.5568 25.8119 49.9722 27.6545 48.0242 27.6545H38.1417L30.4409 36.6068C30.2148 36.8697 29.9172 37 29.6215 37ZM11.0893 2.69647C10.4207 2.69647 9.87571 3.33013 9.87571 4.10762V23.5469C9.87571 24.3244 10.4207 24.958 11.0893 24.958H21.5844C21.8917 24.958 22.1874 25.0996 22.4038 25.3535L29.6215 33.7463L36.8411 25.3535C37.0595 25.0996 37.3532 24.958 37.6605 24.958H48.0223C48.6909 24.958 49.2359 24.3244 49.2359 23.5469V4.10762C49.2359 3.33013 48.6909 2.69647 48.0223 2.69647H11.0893Z" fill="#00365F"/>
<path d="M20.244 13H27.2562H38.7562C39.9941 13 41.0001 13.4483 41.0001 14C41.0001 14.5516 39.9941 15 38.7562 15L31.744 15L20.244 15C19.0061 15 18.0001 14.5516 18.0001 14C18.0001 13.4483 19.0061 13 20.244 13Z" fill="#F08300"/>
<path d="M23.5611 17H28.4391H36.4391C37.3003 17 38.0001 17.4483 38.0001 18C38.0001 18.5516 37.3003 19 36.4391 19L31.5611 19L23.5611 19C22.7 19 22.0001 18.5516 22.0001 18C22.0001 17.4483 22.7 17 23.5611 17Z" fill="#F08300"/>
<path d="M23.5611 9H28.4391H36.4391C37.3003 9 38.0001 9.44833 38.0001 9.99998C38.0001 10.5516 37.3003 11 36.4391 11L31.5611 11L23.5611 11C22.7 11 22.0001 10.5516 22.0001 9.99998C22.0001 9.44833 22.7 9 23.5611 9Z" fill="#F08300"/>
</svg>
