<svg width="61" height="75" viewBox="0 0 61 75" fill="none" xmlns="http://www.w3.org/2000/svg">
<path d="M49.71 56.6454C46.7252 56.6454 44.3042 54.3085 44.2004 51.3238L44.0595 47.2646C44.0067 45.7575 44.5547 44.3288 45.6038 43.2445C46.6509 42.1602 48.06 41.5613 49.5691 41.5613H49.8509C51.3599 41.5613 52.7671 42.1582 53.8162 43.2445C54.8633 44.3288 55.4133 45.7575 55.3604 47.2665L55.2195 51.3258C55.1158 54.3085 52.6947 56.6454 49.71 56.6454ZM49.5691 43.9099C48.704 43.9099 47.8956 44.2524 47.2928 44.8748C46.692 45.4972 46.3769 46.3173 46.4062 47.1824L46.5471 51.2416C46.6058 52.9542 47.9955 54.2948 49.71 54.2948C51.4225 54.2948 52.8121 52.9542 52.8709 51.2416L53.0118 47.1824C53.0411 46.3173 52.726 45.4972 52.1252 44.8748C51.5243 44.2524 50.716 43.9099 49.8489 43.9099H49.5691Z" fill="#00365F"/>
<path d="M11.2899 56.6454C8.30519 56.6454 5.88413 54.3085 5.7804 51.3238L5.63948 47.2646C5.58664 45.7575 6.13465 44.3288 7.18371 43.2425C8.23277 42.1582 9.64 41.5593 11.149 41.5593H11.4308C12.9398 41.5593 14.3471 42.1563 15.3961 43.2425C16.4452 44.3268 16.9932 45.7556 16.9404 47.2626L16.7994 51.3258C16.6957 54.3085 14.2746 56.6454 11.2899 56.6454ZM11.149 43.9099C10.2839 43.9099 9.47559 44.2524 8.87278 44.8748C8.26996 45.4972 7.95681 46.3173 7.98616 47.1824L8.12708 51.2416C8.1858 52.9541 9.57541 54.2948 11.288 54.2948C13.0005 54.2948 14.3901 52.9541 14.4508 51.2416L14.5917 47.1824C14.6211 46.3173 14.306 45.4972 13.7051 44.8748C13.1042 44.2524 12.2959 43.9099 11.4289 43.9099H11.149Z" fill="#00365F"/>
<path d="M52.8942 58.5632H46.5235C44.3569 58.5632 42.3194 59.5007 40.9024 61.0782C39.182 59.3539 36.8314 58.3596 34.3575 58.3596H26.288C23.8806 58.3596 21.6338 59.2697 19.929 60.8942C18.5198 59.4165 16.5685 58.5632 14.4743 58.5632H8.10361C3.9426 58.5632 0.556641 61.9472 0.556641 66.1082V68.2396C0.556641 69.4237 1.44325 70.416 2.61758 70.551L4.7294 70.7937C5.26176 70.8564 5.7765 70.9894 6.26189 71.193C6.26971 71.1969 6.28342 71.2008 6.29516 71.2067C7.87853 71.8624 9.54999 72.1951 11.2665 72.1951C12.9966 72.1951 14.6837 71.8565 16.2828 71.1871C16.5529 71.0736 16.8327 70.9855 17.1204 70.919C17.3729 71.972 18.2576 72.7901 19.3771 72.9193L22.0565 73.2285C22.7494 73.3068 23.4285 73.4849 24.094 73.7608L24.0979 73.7628C26.0727 74.5829 28.1591 74.9998 30.2983 74.9998C32.4493 74.9998 34.5454 74.579 36.5261 73.7511C37.1426 73.4947 37.7905 73.3244 38.4539 73.2461L41.2762 72.9193C42.4173 72.7881 43.3156 71.9387 43.5466 70.8544C43.938 70.9288 44.3197 71.0403 44.6818 71.193C44.6896 71.1969 44.7033 71.2008 44.715 71.2067C46.2984 71.8624 47.9699 72.1951 49.6863 72.1951C51.4165 72.1951 53.1036 71.8565 54.7026 71.1871C55.1626 70.9934 55.6519 70.8661 56.1549 70.8094L58.3822 70.551C59.5565 70.416 60.4431 69.4237 60.4431 68.2415V66.1082C60.4431 61.9491 57.0572 58.5632 52.8942 58.5632ZM15.3746 69.0225C14.0653 69.5705 12.6835 69.8484 11.2645 69.8484C9.85335 69.8484 8.4794 69.5744 7.17981 69.0322C7.17198 69.0283 7.15828 69.0244 7.14654 69.0185C6.46543 68.7367 5.74323 68.5488 4.99949 68.4607L2.90528 68.22V66.1082C2.90528 63.2428 5.23827 60.9118 8.10361 60.9118H14.4743C16.0166 60.9118 17.4493 61.5812 18.4279 62.734C17.5178 64.1921 17.0422 65.8596 17.0422 67.6054V68.5371C16.4687 68.6349 15.9089 68.7974 15.3746 69.0225ZM41.2567 70.3044C41.2567 70.4493 41.149 70.5706 41.0061 70.5863L38.1799 70.9131C37.2992 71.0149 36.4361 71.2419 35.618 71.5844C33.925 72.2929 32.1341 72.6511 30.2963 72.6511C28.4683 72.6511 26.6853 72.2949 24.9806 71.5884H24.9786C24.1272 71.2341 23.2328 71.0012 22.3227 70.8975L19.6433 70.5882C19.5004 70.5726 19.3928 70.4512 19.3928 70.3064V69.5724V67.6074C19.3928 66.0808 19.8801 64.6364 20.8039 63.4288L20.8059 63.4268C22.1211 61.7006 24.1194 60.7102 26.2919 60.7102H34.3614C36.6103 60.7102 38.7221 61.8102 40.0138 63.6539C40.828 64.8164 41.2586 66.1826 41.2586 67.6074V70.3044H41.2567ZM58.0945 68.22L55.8848 68.4764C55.1626 68.5606 54.4599 68.7426 53.7965 69.0205C52.4871 69.5685 51.1053 69.8464 49.6863 69.8464C48.2752 69.8464 46.9012 69.5724 45.6017 69.0303C45.5938 69.0264 45.5801 69.0225 45.5684 69.0166C44.944 68.7582 44.2845 68.584 43.6053 68.4881V67.6054C43.6053 65.9692 43.1786 64.3878 42.3684 62.9884C43.345 61.6947 44.8814 60.9118 46.5255 60.9118H52.8961C55.7634 60.9118 58.0945 63.2428 58.0945 66.1082V68.22Z" fill="#00365F"/>
<path d="M30.3237 56.1912C26.5483 56.1912 23.4892 53.2358 23.358 49.4624L23.1702 44.039C23.1036 42.1326 23.7965 40.3261 25.1234 38.9541C26.4485 37.5821 28.2295 36.8267 30.1378 36.8267H30.5155C32.4238 36.8267 34.2049 37.5821 35.5299 38.9541C36.8549 40.3261 37.5497 42.1326 37.4832 44.039L37.2953 49.4624C37.1602 53.2358 34.0992 56.1912 30.3237 56.1912ZM30.1358 39.1733C28.8715 39.1733 27.6893 39.6744 26.8106 40.5845C25.9318 41.4946 25.4718 42.6924 25.5168 43.9567L25.7047 49.3802C25.7928 51.8815 27.8205 53.8406 30.3237 53.8406C32.827 53.8406 34.8566 51.8815 34.9427 49.3802L35.1306 43.9567C35.1737 42.6924 34.7137 41.4946 33.835 40.5845C32.9562 39.6744 31.776 39.1733 30.5097 39.1733H30.1358Z" fill="#00365F"/>
<path d="M30.9853 32.2273C30.6839 32.2273 30.3844 32.1118 30.1554 31.8828L22.3579 24.0853H12.2157C10.2428 24.0853 8.63794 22.4804 8.63794 20.5076V3.57777C8.63794 1.60491 10.2428 0 12.2157 0H49.6237C51.5966 0 53.2015 1.60491 53.2015 3.57777V20.5095C53.2015 22.4824 51.5966 24.0873 49.6237 24.0873H39.6146L31.8151 31.8848C31.5861 32.1138 31.2847 32.2273 30.9853 32.2273ZM12.2157 2.34864C11.5385 2.34864 10.9866 2.90057 10.9866 3.57777V20.5095C10.9866 21.1867 11.5385 21.7386 12.2157 21.7386H22.8453C23.1565 21.7386 23.4559 21.8619 23.6751 22.0831L30.9853 29.3933L38.2974 22.0831C38.5186 21.8619 38.816 21.7386 39.1272 21.7386H49.6218C50.299 21.7386 50.8509 21.1867 50.8509 20.5095V3.57777C50.8509 2.90057 50.299 2.34864 49.6218 2.34864H12.2157Z" fill="#00365F"/>
<path d="M35.7629 11.109H32.0931V7.43921C32.0931 6.79138 31.5666 6.26489 30.9188 6.26489C30.271 6.26489 29.7445 6.79138 29.7445 7.43921V11.109H26.0747C25.4269 11.109 24.9004 11.6355 24.9004 12.2833C24.9004 12.9311 25.4269 13.4576 26.0747 13.4576H29.7445V17.1274C29.7445 17.7752 30.271 18.3017 30.9188 18.3017C31.5666 18.3017 32.0931 17.7752 32.0931 17.1274V13.4576H35.7629C36.4107 13.4576 36.9372 12.9311 36.9372 12.2833C36.9372 11.6355 36.4127 11.109 35.7629 11.109Z" fill="#F08300"/>
</svg>
