<svg width="83" height="78" viewBox="0 0 83 78" fill="none" xmlns="http://www.w3.org/2000/svg">
<path d="M80.6881 65.2333L69.4551 67.214C68.8249 67.3251 68.2215 67.0079 68.0554 66.4767L62.6596 49.3583L59.9312 49.832C59.247 49.9508 58.6079 49.564 58.5053 48.9699C58.4026 48.3757 58.874 47.7987 59.5557 47.6785C59.5578 47.6781 59.5578 47.6781 59.5599 47.6778L63.3922 47.0131C64.0206 46.9042 64.6219 47.2217 64.7877 47.7511L70.1808 64.8663L79.2197 63.2725C78.6668 61.8884 75.5704 61.2543 75.5352 61.2475C75.0921 61.1629 74.7465 60.8705 74.6383 60.4864L69.7975 43.4347C69.7956 43.4239 69.7916 43.4135 69.7894 43.401C69.3917 41.786 67.603 40.7751 65.7152 41.0988L54.9043 42.9606C54.2198 43.0776 53.581 42.6927 53.4801 42.0964C53.3799 41.5036 53.8491 40.927 54.5309 40.8068C54.533 40.8064 54.535 40.8061 54.5371 40.8057L65.348 38.9439C68.536 38.3947 71.5588 40.098 72.2395 42.8228L76.9059 59.2597C79.2958 59.8742 82.4096 61.4652 81.7258 64.3289C81.6184 64.7826 81.2046 65.1422 80.6881 65.2333Z" fill="#00365F"/>
<path d="M47.2624 19.0779L42.7719 19.1776C39.6542 19.2468 37.1757 17.0815 37.2447 14.353L37.3344 10.8047C37.4035 8.07437 39.9964 5.79829 43.1119 5.72912L44.5182 5.6979C47.6359 5.62869 50.1144 7.794 50.0454 10.5225L49.8874 16.77C49.8561 18.0107 48.6791 19.0464 47.2624 19.0779ZM43.0564 7.92509C41.322 7.96359 39.8803 9.23014 39.8419 10.749L39.7523 14.2955C39.7139 15.8144 41.0931 17.0183 42.8275 16.9798L47.318 16.8801C47.3493 16.8794 47.3814 16.8512 47.3821 16.8238L47.54 10.5781C47.5784 9.05923 46.1992 7.85532 44.4648 7.89382L43.0564 7.92509Z" fill="#00365F"/>
<path d="M36.0754 44.86C35.3915 44.9806 34.7507 44.596 34.646 44.0022L31.5318 26.3408L22.8896 27.8647C22.2057 27.9853 21.5649 27.6007 21.4602 27.0069C21.3555 26.4131 21.8261 25.8325 22.51 25.712L32.3918 23.9695C33.0757 23.8489 33.7165 24.2335 33.8212 24.8273L37.1252 43.565C37.2299 44.1588 36.7613 44.739 36.0754 44.86Z" fill="#00365F"/>
<path d="M25.0534 41.0571C25.3935 41.0587 25.7604 40.508 25.8718 39.8289C25.9834 39.1478 25.7972 38.5967 25.457 38.5951L14.724 38.5459C13.4954 39.7671 14.0312 40.9882 14.9369 41.0107L25.0534 41.0571Z" fill="#00365F"/>
<path d="M18.1479 46.5932C18.488 46.5948 18.8549 46.0442 18.9662 45.3651C19.0779 44.6839 18.8916 44.1328 18.5515 44.1312L7.8185 44.0821C6.58992 45.3032 7.12564 46.5243 8.0314 46.5469L18.1479 46.5932Z" fill="#00365F"/>
<path d="M43.1136 45.0396L43.095 45.0429C42.4112 45.1635 41.7703 44.7789 41.6656 44.1851C41.5609 43.5913 42.0316 43.0108 42.7154 42.8902C43.3993 42.7696 44.0484 43.1527 44.1531 43.7465C44.2578 44.3403 43.7995 44.9187 43.1136 45.0396Z" fill="#F08300"/>
<path d="M38.1737 29.5647C38.0353 29.5891 37.8934 29.5938 37.7474 29.5751C37.0676 29.4897 36.6203 28.9341 36.751 28.334C36.8816 27.7338 37.5381 27.3129 38.2198 27.398C38.8995 27.4834 39.3462 28.0354 39.2159 28.6373L39.2148 28.6431C39.1129 29.1161 38.684 29.4747 38.1737 29.5647Z" fill="#F08300"/>
<path d="M54.3606 42.5459C53.6767 42.6665 53.0359 42.2819 52.9312 41.6881L50.5249 28.0416C50.294 26.732 49.4906 25.6067 48.2633 24.8686C47.0344 24.1327 45.5272 23.8731 44.019 24.1391C42.0377 24.4884 40.3385 25.7369 39.5871 27.3955C39.5591 27.454 39.5381 27.504 39.517 27.5539C39.2827 28.1335 38.5624 28.4584 37.9112 28.281C37.26 28.1036 36.9214 27.4881 37.1579 26.9082C37.1904 26.8266 37.227 26.7443 37.2657 26.6617C38.3442 24.2851 40.7863 22.4894 43.6394 21.9863C45.8088 21.6038 47.9773 21.978 49.7468 23.0366C51.5145 24.0974 52.6717 25.719 53.0041 27.6045L55.4104 41.251C55.5151 41.8448 55.0465 42.425 54.3606 42.5459Z" fill="#F08300"/>
<path d="M44.824 71.557C33.9009 73.4831 23.6521 67.3327 21.9797 57.8482C21.2835 53.8997 22.1836 49.7623 24.5146 46.2012C26.8087 42.6965 30.3828 39.8911 34.5804 38.3019C34.6381 38.2788 34.692 38.2582 34.7551 38.2415C35.4242 38.0495 36.1139 38.3607 36.3007 38.9364C36.4788 39.4876 36.1316 40.0797 35.5163 40.2992C35.5104 40.3021 35.5025 40.3053 35.4963 40.3064C27.8628 43.1895 23.2199 50.3842 24.4592 57.4128C25.9225 65.7116 34.8873 71.0913 44.4448 69.4061C54.0002 67.7212 60.5843 59.5998 59.121 51.301C58.9913 50.5655 58.7987 49.8355 58.5463 49.129C57.6671 46.6556 56.047 44.4386 53.8586 42.7195C53.7022 42.5936 53.5354 42.4694 53.3473 42.3325C50.2705 40.1059 46.3384 38.9237 42.2725 39.0006C41.5803 39.0135 41.0333 38.5329 41.052 37.9265C41.0708 37.3202 41.6468 36.8173 42.339 36.8044C46.9888 36.717 51.4834 38.0683 54.9949 40.6102C55.2123 40.768 55.4086 40.9146 55.5874 41.0588C58.0826 43.0198 59.9355 45.5546 60.9416 48.3848C61.2285 49.1907 61.4481 50.025 61.5961 50.8646C63.2723 60.3466 55.7471 69.631 44.824 71.557Z" fill="#00365F"/>
<path d="M43.7774 65.621C36.6227 66.8825 29.9117 62.8552 28.8162 56.6428C27.9726 51.8584 30.7125 46.9674 35.6346 44.4736C41.4999 42 41.3414 43.3249 41.6657 43.8467C41.9899 44.3685 41.9073 44.6767 36.8091 46.3622C32.8276 48.3794 30.6111 52.3365 31.2937 56.2078C32.1797 61.2326 37.6091 64.4908 43.3961 63.4704C49.183 62.45 53.1685 57.5317 52.2825 52.5069C51.5461 48.3306 47.656 45.2727 42.8224 45.067C42.7819 45.0667 42.741 45.0647 42.704 45.0601C42.021 44.9919 41.5546 44.4489 41.6657 43.8467C41.7694 43.2753 42.3517 42.8563 42.9954 42.8705C43.0105 42.8715 43.0252 42.8707 43.0424 42.8714C49.0314 43.1176 53.8501 46.8996 54.7618 52.0698C55.8589 58.28 50.93 64.3598 43.7774 65.621Z" fill="#00365F"/>
<path d="M57.1616 46.6327C57.0304 46.743 56.8903 46.8534 56.7415 46.9612C54.8055 48.3692 52.4522 48.6302 50.1124 47.6915C49.9822 47.6401 49.8649 47.5679 49.7647 47.4789L41.5567 40.1737C41.4396 40.0691 41.3471 39.9438 41.2894 39.8042L41.2435 39.6943L37.1527 29.8547C37.1501 29.8469 37.146 29.8404 37.1435 29.8327L36.6526 28.6536C36.4189 28.0925 36.7578 27.451 37.4105 27.219C38.0632 26.9869 38.7801 27.2529 39.0138 27.814L39.4982 28.9763C39.5007 28.984 39.5062 28.9918 39.5088 28.9995L43.5613 38.7526L51.4349 45.7597C52.8389 46.2699 54.0705 46.1178 55.1936 45.2996C55.5894 45.0112 55.9074 44.6868 56.1386 44.4132L51.4719 40.267C51.4677 40.2631 51.4606 40.2566 51.4564 40.2528L47.5488 36.7828C47.4303 36.677 47.3394 36.5504 47.2803 36.4094L43.4806 27.2187C43.2499 26.6576 43.5888 26.0161 44.2429 25.7853C44.8955 25.5559 45.6124 25.8219 45.8445 26.3843L49.5564 35.3617L53.296 38.6833C53.3002 38.6872 53.3072 38.6936 53.3115 38.6975L58.6358 43.4269C58.9957 43.7457 59.0779 44.2386 58.8435 44.6585C58.7812 44.7777 58.2312 45.733 57.1616 46.6327Z" fill="#F08300"/>
</svg>
