<svg width="59" height="75" viewBox="0 0 59 75" fill="none" xmlns="http://www.w3.org/2000/svg">
<path d="M57.0395 74.9999H45.6332C44.9934 74.9999 44.4542 74.5195 44.3829 73.8838L42.0416 53.3894L39.2724 53.381C38.578 53.3789 38.0157 52.8125 38.0178 52.1181C38.0199 51.4237 38.5843 50.8635 39.2766 50.8635C39.2787 50.8635 39.2787 50.8635 39.2808 50.8635L43.1703 50.8761C43.808 50.8782 44.3451 51.3586 44.4164 51.9922L46.7556 72.4824H55.9339C55.6297 70.802 52.6906 69.4635 52.657 69.4489C52.2353 69.2642 51.9458 68.8635 51.906 68.4062L50.0997 48.0985C50.0997 48.0859 50.0976 48.0733 50.0976 48.0586C49.9864 46.1475 48.4004 44.6433 46.485 44.6328L35.515 44.5824C34.8206 44.5782 34.2584 44.0139 34.2626 43.3174C34.2668 42.6251 34.829 42.0649 35.5213 42.0649C35.5234 42.0649 35.5255 42.0649 35.5276 42.0649L46.4976 42.1153C49.7325 42.13 52.4136 44.6663 52.6108 47.8929L54.3521 67.4684C56.599 68.6433 59.3892 71.0705 58.2185 74.1817C58.0339 74.6747 57.564 74.9999 57.0395 74.9999Z" fill="#00365F"/>
<path d="M33.5262 15.4175H29.0178C25.8878 15.4175 23.343 12.8706 23.343 9.74266V5.67483C23.343 2.54476 25.8899 0 29.0178 0H30.4297C33.5598 0 36.1046 2.54685 36.1046 5.67483V12.8371C36.1046 14.2594 34.9486 15.4175 33.5262 15.4175ZM29.0178 2.51748C27.2766 2.51748 25.8605 3.93357 25.8605 5.67483V9.74056C25.8605 11.4818 27.2766 12.8979 29.0178 12.8979H33.5262C33.5577 12.8979 33.5892 12.8664 33.5892 12.835V5.67483C33.5892 3.93357 32.1731 2.51748 30.4318 2.51748H29.0178Z" fill="#00365F"/>
<path d="M16.6424 42.9713C15.948 42.9713 15.3836 42.407 15.3836 41.7126V21.0587H6.60811C5.9137 21.0587 5.34937 20.4944 5.34937 19.8C5.34937 19.1056 5.9137 18.5413 6.60811 18.5413H16.6424C17.3368 18.5413 17.9011 19.1056 17.9011 19.8V41.7126C17.9011 42.407 17.3389 42.9713 16.6424 42.9713Z" fill="#00365F"/>
<path d="M23.5423 44.5824H23.5234C22.829 44.5824 22.2646 44.0181 22.2646 43.3237C22.2646 42.6293 22.829 42.0649 23.5234 42.0649C24.2178 42.0649 24.7905 42.6293 24.7905 43.3237C24.7905 44.0181 24.2388 44.5824 23.5423 44.5824Z" fill="#F08300"/>
<path d="M21.3648 26.0433C21.2242 26.0433 21.0836 26.0202 20.9431 25.9699C20.2885 25.737 19.9445 25.0175 20.1773 24.3629C20.4102 23.7084 21.1298 23.3622 21.7864 23.5951C22.441 23.8279 22.785 24.5433 22.5522 25.2L22.5501 25.2063C22.3676 25.7223 21.8829 26.0433 21.3648 26.0433Z" fill="#F08300"/>
<path d="M35.0514 44.0035C34.357 44.0035 33.7926 43.4392 33.7926 42.7448V26.786C33.7926 25.2545 33.1968 23.8175 32.1164 22.735C31.0339 21.6545 29.5947 21.0587 28.0633 21.0587C26.0514 21.0587 24.1612 22.135 23.1332 23.8657C23.0954 23.9266 23.0661 23.979 23.0367 24.0315C22.7052 24.642 21.9395 24.8664 21.329 24.535C20.7185 24.2035 20.4919 23.4378 20.8255 22.8273C20.8717 22.7413 20.922 22.6552 20.9745 22.5692C22.4493 20.0895 25.1661 18.5413 28.0633 18.5413C30.2661 18.5413 32.3367 19.3993 33.8954 20.9538C35.4521 22.5105 36.3101 24.5811 36.3101 26.786V42.7448C36.3101 43.4392 35.7479 44.0035 35.0514 44.0035Z" fill="#F08300"/>
<path d="M20.622 75C9.53042 75 0.505249 65.9748 0.505249 54.8832C0.505249 50.2658 2.11014 45.7532 5.02413 42.1804C7.89196 38.6644 11.899 36.1972 16.3087 35.2343C16.3696 35.2196 16.4262 35.207 16.4913 35.2007C17.1836 35.1168 17.8087 35.6077 17.8927 36.2979C17.9724 36.9588 17.5276 37.5609 16.8836 37.6867C16.8773 37.6888 16.8689 37.6909 16.8626 37.6909C8.84441 39.4343 3.02273 46.6658 3.02273 54.8853C3.02273 64.5902 10.9171 72.4846 20.622 72.4846C30.3248 72.4846 38.2192 64.5902 38.2192 54.8853C38.2192 54.0252 38.1563 53.1588 38.0304 52.307C37.5941 49.3259 36.3836 46.4874 34.5269 44.1C34.3948 43.9259 34.2521 43.7518 34.0906 43.5588C31.4472 40.4182 27.7801 38.2909 23.7626 37.5651C23.0787 37.4413 22.6234 36.7867 22.7472 36.1028C22.871 35.4189 23.5255 34.9637 24.2094 35.0874C28.8039 35.9182 32.9955 38.3497 36.0122 41.935C36.199 42.1574 36.3668 42.363 36.5178 42.5623C38.6346 45.2853 40.0192 48.5308 40.5185 51.942C40.6612 52.9133 40.7325 53.9035 40.7325 54.8853C40.7367 65.9748 31.7136 75 20.622 75Z" fill="#00365F"/>
<path d="M20.6221 68.058C13.3571 68.058 7.44727 62.1482 7.44727 54.8832C7.44727 49.2881 10.9948 44.2888 16.2752 42.4448C16.9319 42.2161 17.6494 42.5622 17.878 43.2189C18.1067 43.8755 17.7606 44.593 17.1039 44.8217C12.8326 46.3133 9.96265 50.358 9.96265 54.8853C9.96265 60.7615 14.7438 65.5427 20.62 65.5427C26.4962 65.5427 31.2752 60.7615 31.2752 54.8853C31.2752 50.0014 27.9752 45.7552 23.2508 44.5552C23.2109 44.5469 23.171 44.5364 23.1354 44.5238C22.4745 44.3098 22.1095 43.6007 22.3235 42.9399C22.5249 42.3126 23.171 41.9538 23.8025 42.0986C23.8172 42.1028 23.8319 42.1049 23.8487 42.1091C29.7039 43.586 33.7927 48.8392 33.7927 54.8853C33.7948 62.1482 27.885 68.058 20.6221 68.058Z" fill="#00365F"/>
<path d="M21.3899 52.7938C21.2116 52.7938 21.027 52.7875 20.8381 52.7728C18.3773 52.5861 16.5081 51.1301 15.5766 48.6672C15.5242 48.5308 15.4969 48.3861 15.4948 48.2392L15.3312 36.1994C15.3291 36.0273 15.3605 35.8553 15.4277 35.6959L15.4801 35.57L20.1941 24.3169C20.1983 24.3085 20.2004 24.3001 20.2046 24.2917L20.7689 22.9427C21.0374 22.3008 21.7738 21.9987 22.4158 22.2672C23.0577 22.5357 23.3598 23.2721 23.0913 23.9141L22.5354 25.2441C22.5312 25.2525 22.5291 25.263 22.5249 25.2714L17.8507 36.4239L18.0081 47.9728C18.6081 49.4057 19.5983 50.1546 21.027 50.2616C21.5305 50.2994 22.0067 50.2511 22.3822 50.184L22.2836 43.3448C22.2836 43.3385 22.2836 43.328 22.2836 43.3218L22.1997 37.5966C22.1976 37.4225 22.2312 37.2504 22.2983 37.0889L26.7165 26.5931C26.9871 25.9532 27.7235 25.6511 28.3654 25.9218C29.0053 26.1924 29.3074 26.9287 29.0367 27.5707L24.7214 37.8232L24.8011 43.3029C24.8011 43.3092 24.8011 43.3197 24.8011 43.326L24.9144 51.128C24.9228 51.6546 24.5997 52.1308 24.1088 52.3197C23.9724 52.3763 22.8437 52.7938 21.3899 52.7938Z" fill="#F08300"/>
</svg>
