<svg width="79" height="76" viewBox="0 0 79 76" fill="none" xmlns="http://www.w3.org/2000/svg">
<path d="M77.5767 75.2855H1.42323C0.680894 75.2855 0.0793457 74.684 0.0793457 73.9416V67.3289C0.0793457 66.5865 0.680894 65.985 1.42323 65.985H77.5767C78.3191 65.985 78.9206 66.5865 78.9206 67.3289V73.9416C78.9206 74.684 78.3191 75.2855 77.5767 75.2855ZM2.76712 72.5978H76.2328V68.6727H2.76712V72.5978Z" fill="#00365F"/>
<path d="M67.8496 56.8338H62.1114C61.369 56.8338 60.7675 56.2323 60.7675 55.4899V22.9594C60.7675 22.217 61.369 21.6155 62.1114 21.6155H67.8922C68.2485 21.6155 68.5919 21.7563 68.8436 22.0101C69.0953 22.2618 69.2361 22.6053 69.2361 22.9615L69.1934 55.4921C69.1934 56.2323 68.5919 56.8338 67.8496 56.8338ZM63.4553 54.1461H66.5078L66.5462 24.3033H63.4553V54.1461ZM55.1573 56.8338H49.4191C48.6768 56.8338 48.0752 56.2323 48.0752 55.4899V22.9594C48.0752 22.217 48.6768 21.6155 49.4191 21.6155H55.2C55.5562 21.6155 55.8996 21.7563 56.1513 22.0101C56.4031 22.2618 56.5438 22.6053 56.5438 22.9615L56.5012 55.4921C56.5012 56.2323 55.8996 56.8338 55.1573 56.8338ZM50.763 54.1461H53.8155L53.8539 24.3033H50.763V54.1461ZM42.465 56.8338H36.7269C35.9845 56.8338 35.383 56.2323 35.383 55.4899V22.9594C35.383 22.217 35.9845 21.6155 36.7269 21.6155H42.5077C42.8639 21.6155 43.2074 21.7563 43.4591 22.0101C43.7108 22.2618 43.8516 22.6053 43.8516 22.9615L43.8089 55.4921C43.8089 56.2323 43.2074 56.8338 42.465 56.8338ZM38.0708 54.1461H41.1233L41.1617 24.3033H38.0708V54.1461ZM29.9861 56.8338H24.2479C23.5056 56.8338 22.904 56.2323 22.904 55.4899V22.9594C22.904 22.217 23.5056 21.6155 24.2479 21.6155H30.0288C30.385 21.6155 30.7284 21.7563 30.9802 22.0101C31.2319 22.2618 31.3727 22.6053 31.3727 22.9615L31.33 55.4921C31.33 56.2323 30.7284 56.8338 29.9861 56.8338ZM25.5918 54.1461H28.6444L28.6828 24.3033H25.5918V54.1461ZM17.2939 56.8338H11.5557C10.8133 56.8338 10.2118 56.2323 10.2118 55.4899V22.9594C10.2118 22.217 10.8133 21.6155 11.5557 21.6155H17.3365C17.6928 21.6155 18.0362 21.7563 18.2879 22.0101C18.5396 22.2618 18.6804 22.6053 18.6804 22.9615L18.6377 55.4921C18.6377 56.2323 18.0362 56.8338 17.2939 56.8338ZM12.8996 54.1461H15.9521L15.9905 24.3033H12.8996V54.1461Z" fill="#F08300"/>
<path d="M71.1771 62.7107H71.175L8.14034 62.5827C7.398 62.5805 6.79858 61.979 6.79858 61.2367C6.80072 60.4943 7.40227 59.8949 8.14247 59.8949H8.1446L71.1792 60.0229C71.9216 60.025 72.521 60.6266 72.521 61.3689C72.5188 62.1112 71.9173 62.7107 71.1771 62.7107Z" fill="#00365F"/>
<path d="M70.9639 17.6905H8.03595C7.40454 17.6905 6.85845 17.251 6.72406 16.6367C6.58967 16.0223 6.89898 15.393 7.47066 15.1285L39.2546 0.409784C39.6151 0.243398 40.0332 0.243398 40.3937 0.41405L71.5377 15.1328C72.1073 15.4016 72.4123 16.0287 72.2758 16.6431C72.1393 17.2574 71.5932 17.6905 70.9639 17.6905ZM14.1368 15.0027H64.9762L39.8135 3.11249L14.1368 15.0027Z" fill="#00365F"/>
</svg>
