<svg width="80" height="75" viewBox="0 0 80 75" fill="none" xmlns="http://www.w3.org/2000/svg">
<path d="M78.0767 75H1.92323C1.18089 75 0.579346 74.3984 0.579346 73.6561V67.0433C0.579346 66.301 1.18089 65.6995 1.92323 65.6995H78.0767C78.8191 65.6995 79.4206 66.301 79.4206 67.0433V73.6561C79.4206 74.3984 78.8191 75 78.0767 75ZM3.26712 72.3122H76.7328V68.3872H3.26712V72.3122Z" fill="#00365F"/>
<path d="M64.3019 60.009H59.3439C58.7025 60.009 58.1827 59.3941 58.1827 58.6353V25.3827C58.1827 24.6239 58.7025 24.009 59.3439 24.009H64.3388C64.6466 24.009 64.9434 24.1529 65.1609 24.4124C65.3783 24.6697 65.5 25.0208 65.5 25.3849L65.4631 58.6375C65.4631 59.3941 64.9434 60.009 64.3019 60.009ZM60.5051 57.2616H63.1426L63.1758 26.7565H60.5051V57.2616ZM53.3352 60.009H48.3771C47.7357 60.009 47.2159 59.3941 47.2159 58.6353V25.3827C47.2159 24.6239 47.7357 24.009 48.3771 24.009H53.3721C53.6799 24.009 53.9766 24.1529 54.1941 24.4124C54.4116 24.6697 54.5332 25.0208 54.5332 25.3849L54.4964 58.6375C54.4964 59.3941 53.9766 60.009 53.3352 60.009ZM49.5383 57.2616H52.1759L52.209 26.7565H49.5383V57.2616ZM42.3684 60.009H37.4104C36.769 60.009 36.2492 59.3941 36.2492 58.6353V25.3827C36.2492 24.6239 36.769 24.009 37.4104 24.009H42.4053C42.7131 24.009 43.0099 24.1529 43.2274 24.4124C43.4448 24.6697 43.5665 25.0208 43.5665 25.3849L43.5296 58.6375C43.5296 59.3941 43.0099 60.009 42.3684 60.009ZM38.5716 57.2616H41.2091L41.2423 26.7565H38.5716V57.2616ZM31.586 60.009H26.6279C25.9865 60.009 25.4668 59.3941 25.4668 58.6353V25.3827C25.4668 24.6239 25.9865 24.009 26.6279 24.009H31.6229C31.9307 24.009 32.2274 24.1529 32.4449 24.4124C32.6624 24.6697 32.7841 25.0208 32.7841 25.3849L32.7472 58.6375C32.7472 59.3941 32.2274 60.009 31.586 60.009ZM27.7891 57.2616H30.4267L30.4598 26.7565H27.7891V57.2616ZM20.6193 60.009H15.6612C15.0198 60.009 14.5 59.3941 14.5 58.6353V25.3827C14.5 24.6239 15.0198 24.009 15.6612 24.009H20.6561C20.9639 24.009 21.2607 24.1529 21.4782 24.4124C21.6957 24.6697 21.8173 25.0208 21.8173 25.3849L21.7804 58.6375C21.7804 59.3941 21.2607 60.009 20.6193 60.009ZM16.8224 57.2616H19.4599L19.4931 26.7565H16.8224V57.2616Z" fill="#F08300"/>
<path d="M71.6771 68.4251H71.675L8.64034 68.2971C7.898 68.295 7.29858 67.6935 7.29858 66.9511C7.30072 66.2088 7.90227 65.6094 8.64247 65.6094H8.6446L71.6792 65.7374C72.4216 65.7395 73.021 66.341 73.021 67.0834C73.0188 67.8257 72.4173 68.4251 71.6771 68.4251Z" fill="#00365F"/>
<path d="M71.4639 17.4049H8.53595C7.90454 17.4049 7.35845 16.9655 7.22406 16.3512C7.08967 15.7368 7.39898 15.1075 7.97066 14.843L39.7546 0.124261C40.1151 -0.0421247 40.5332 -0.0421246 40.8937 0.128528L72.0377 14.8473C72.6073 15.1161 72.9123 15.7432 72.7758 16.3576C72.6393 16.9719 72.0932 17.4049 71.4639 17.4049ZM14.6368 14.7172H65.4762L40.3135 2.82696L14.6368 14.7172Z" fill="#00365F"/>
</svg>
