<svg width="26" height="30" viewBox="0 0 30 34" fill="none" xmlns="http://www.w3.org/2000/svg">
<path d="M18.0842 7.85147C19.7889 6.1468 19.7889 3.38298 18.0842 1.67831C16.3795 -0.0263554 13.6157 -0.0263547 11.911 1.67832C10.2064 3.38298 10.2064 6.1468 11.911 7.85147C13.6157 9.55614 16.3795 9.55614 18.0842 7.85147Z" fill="white"/>
<path d="M27.7937 9.68233C19.3335 11.2458 10.6585 11.2458 2.19841 9.68233C2.0294 9.64914 1.85546 9.65003 1.68679 9.68495C1.51813 9.71988 1.35814 9.78813 1.21621 9.88571C1.07427 9.98329 0.953255 10.1082 0.86025 10.2532C0.767246 10.3982 0.704128 10.5603 0.6746 10.73C0.642513 10.8989 0.644211 11.0725 0.679596 11.2407C0.714981 11.409 0.783351 11.5686 0.880758 11.7102C0.978165 11.8519 1.10268 11.9729 1.24711 12.0662C1.39153 12.1595 1.55301 12.2232 1.72222 12.2538C4.58731 12.7808 7.48137 13.136 10.3889 13.3173C10.6704 13.3367 10.9449 13.4133 11.1959 13.5423C11.4468 13.6712 11.6689 13.8499 11.8486 14.0675C12.0283 14.285 12.1618 14.5369 12.241 14.8077C12.3203 15.0785 12.3436 15.3626 12.3095 15.6427L12.0556 17.8252C11.6693 21.2606 10.8699 24.6369 9.6746 27.8807L8.0873 32.1268C7.96522 32.452 7.97732 32.8124 8.12095 33.1286C8.26458 33.4449 8.52797 33.6912 8.85317 33.8133C9.17838 33.9354 9.53876 33.9233 9.85504 33.7796C10.1713 33.636 10.4176 33.3726 10.5397 33.0474L10.9286 32.2538C12.1984 29.5474 13.381 26.7776 14.4603 23.976C14.5031 23.8655 14.5783 23.7706 14.6761 23.7037C14.7738 23.6367 14.8895 23.6009 15.0079 23.6009C15.1264 23.6009 15.2421 23.6367 15.3398 23.7037C15.4375 23.7706 15.5128 23.8655 15.5556 23.976C16.6349 26.7776 17.8175 29.5315 19.0873 32.2617L19.4921 33.1268C19.5902 33.3584 19.7534 33.5567 19.9618 33.6975C20.1703 33.8384 20.4151 33.9158 20.6667 33.9204C20.8215 33.9192 20.9748 33.8896 21.119 33.8331C21.2827 33.7763 21.4335 33.6874 21.5624 33.5716C21.6912 33.4558 21.7957 33.3154 21.8696 33.1587C21.9436 33.002 21.9854 32.8321 21.9928 32.659C22.0002 32.4859 21.973 32.313 21.9127 32.1506L20.3254 27.9046C19.134 24.6595 18.3347 21.2837 17.9444 17.849L17.6984 15.6506C17.6655 15.3715 17.6897 15.0887 17.7696 14.8193C17.8494 14.5499 17.9833 14.2996 18.1629 14.0835C18.3426 13.8675 18.5643 13.6902 18.8147 13.5626C19.065 13.435 19.3387 13.3596 19.619 13.3411C22.5022 13.1613 25.3723 12.8114 28.2143 12.2934C28.5292 12.24 28.8156 12.0783 29.0242 11.8364C29.2329 11.5945 29.3506 11.2874 29.3571 10.968C29.3573 10.7745 29.3145 10.5832 29.2319 10.4082C29.1493 10.2331 29.0289 10.0785 28.8794 9.95554C28.7298 9.83258 28.5549 9.7443 28.3672 9.69706C28.1794 9.64982 27.9836 9.64479 27.7937 9.68233Z" fill="white"/>
</svg>
