<svg width="18" height="12" viewBox="0 0 18 12" fill="none" xmlns="http://www.w3.org/2000/svg">
<path d="M9.14135 0.589897C8.90736 0.716135 8.76148 0.956179 8.76148 1.21726V5.28271H0.734172C0.328842 5.28271 -0.00012207 5.60404 -0.00012207 5.99997C-0.00012207 6.3959 0.328842 6.71724 0.734172 6.71724H8.76148V10.7827C8.76148 11.0447 8.90736 11.2848 9.14135 11.4101C9.37535 11.5372 9.66123 11.5286 9.88739 11.39L17.6572 6.60726C17.8706 6.47528 17.9999 6.24671 17.9999 5.99997C17.9999 5.75324 17.8706 5.52467 17.6572 5.39269L9.88739 0.60998C9.76795 0.537298 9.63186 0.5 9.49577 0.5C9.37437 0.5 9.25199 0.530603 9.14135 0.589897Z" fill="#00365F"/>
</svg>
