<svg width="19" height="18" viewBox="0 0 19 18" fill="none" xmlns="http://www.w3.org/2000/svg">
<path d="M5.05043 15.2171C5.79685 15.2171 6.40837 15.8416 6.40837 16.6131C6.40837 17.3754 5.79685 18 5.05043 18C4.29502 18 3.6835 17.3754 3.6835 16.6131C3.6835 15.8416 4.29502 15.2171 5.05043 15.2171ZM15.1675 15.2171C15.914 15.2171 16.5255 15.8416 16.5255 16.6131C16.5255 17.3754 15.914 18 15.1675 18C14.4121 18 13.8006 17.3754 13.8006 16.6131C13.8006 15.8416 14.4121 15.2171 15.1675 15.2171ZM0.867151 0.000107541L0.958799 0.00786447L3.10363 0.337591C3.40939 0.393617 3.63421 0.649867 3.66119 0.962142L3.83206 3.01949C3.85904 3.31431 4.09286 3.53474 4.38063 3.53474H16.5257C17.0742 3.53474 17.434 3.72762 17.7937 4.15011C18.1534 4.5726 18.2163 5.17878 18.1354 5.72894L17.2811 11.754C17.1192 12.9122 16.148 13.7654 15.0059 13.7654H5.1945C3.99843 13.7654 3.0092 12.8295 2.91028 11.6172L2.08292 1.60506L0.724981 1.36626C0.365261 1.30197 0.113458 0.943773 0.176408 0.57639C0.239359 0.200741 0.590086 -0.0481615 0.958799 0.00786447L0.867151 0.000107541ZM13.567 6.93212H11.0759C10.6982 6.93212 10.4014 7.23521 10.4014 7.62096C10.4014 7.99753 10.6982 8.30981 11.0759 8.30981H13.567C13.9447 8.30981 14.2414 7.99753 14.2414 7.62096C14.2414 7.23521 13.9447 6.93212 13.567 6.93212Z" fill="white"/>
</svg>
