<svg width="24" height="20" viewBox="0 0 24 20" fill="none" xmlns="http://www.w3.org/2000/svg">
<path d="M17.2187 5.87207L12.9229 10.0952C12.4595 9.87203 11.9321 9.8198 11.4339 9.9478C10.9357 10.0758 10.4988 10.3758 10.2004 10.7947C9.90198 11.2137 9.76127 11.7247 9.80314 12.2373C9.845 12.75 10.0667 13.2313 10.4292 13.5963C10.7916 13.9613 11.2714 14.1865 11.7837 14.2319C12.2961 14.2774 12.808 14.1403 13.2291 13.8449C13.6501 13.5495 13.9532 13.1147 14.0847 12.6174C14.2162 12.1201 14.1677 11.5924 13.9478 11.1274L18.2509 6.90424L17.2187 5.87207Z" fill="white" stroke="white"/>
<path d="M11.9994 0.505868L12.0006 0.505867C14.1928 0.503355 16.34 1.12827 18.1886 2.3068C20.0371 3.48533 21.5098 5.16826 22.4327 7.15682C23.3555 9.14537 23.69 11.3565 23.3967 13.5291C23.1034 15.7012 22.1948 17.744 20.7781 19.4164C20.7778 19.4168 20.7775 19.4171 20.7772 19.4174L20.7107 19.4951H3.28934L3.22278 19.4174C3.22249 19.4171 3.22219 19.4167 3.2219 19.4164C1.8052 17.744 0.896577 15.7012 0.603298 13.5291C0.309958 11.3565 0.644475 9.14537 1.56734 7.15682C2.49021 5.16826 3.96287 3.48533 5.81142 2.3068C7.65996 1.12827 9.80716 0.503355 11.9994 0.505868ZM20.2428 19.0413H20.4833L20.6334 18.8535C21.9999 17.1436 22.8245 15.0647 23.0018 12.8831L23.0457 12.3426H22.5034H20.4375V11.8888H22.4671H22.9963L22.9663 11.3604C22.8142 8.68853 21.6949 6.16333 19.8173 4.25632C17.9397 2.3493 15.4322 1.19085 12.763 0.997282L12.2269 0.958399V1.49597V3.53279H11.7731V1.4887V0.953718L11.2394 0.989845C8.82249 1.15343 6.52767 2.11206 4.71263 3.7163L4.31662 4.06631L4.68804 4.44231L6.10513 5.8769L5.78517 6.19686L4.35787 4.76955L3.97611 4.38779L3.62472 4.79767C2.0486 6.63613 1.12481 8.94426 0.99727 11.3625L0.969511 11.8888H1.49658H3.50431V12.3426H1.49658H0.954306L0.998218 12.8831C1.17546 15.0647 2.00015 17.1436 3.36658 18.8535L3.5167 19.0413H3.75717H20.2428Z" fill="white" stroke="white"/>
</svg>
