<svg width="20" height="26" viewBox="0 0 20 26" fill="none" xmlns="http://www.w3.org/2000/svg">
<path d="M9.99991 22.9989C9.90119 22.9989 9.80321 22.9678 9.72107 22.9064L8.64788 22.101C8.10073 21.6834 7.71185 21.0976 7.54982 20.4489C7.54681 20.4381 7.5453 20.428 7.54304 20.4171L7.20164 18.3851C7.1632 18.1568 7.31845 17.9401 7.55434 17.8924C8.51448 17.6981 9.50025 17.3911 9.66454 17.2358C9.75046 17.1441 9.87179 17.0928 10.0007 17.0928C10.1288 17.0928 10.2509 17.1462 10.336 17.238C10.4988 17.3918 11.4846 17.6988 12.444 17.8932C12.6799 17.9408 12.8351 18.1575 12.7967 18.3858L12.4553 20.4178C12.4538 20.4287 12.4515 20.4395 12.4485 20.4496C12.2865 21.0983 11.8976 21.6849 11.3527 22.1002L10.2773 22.9086C10.1966 22.9685 10.0986 22.9989 9.99991 22.9989ZM8.43309 20.2618C8.55066 20.7176 8.82574 21.1279 9.20859 21.4205L9.99991 22.015L10.7935 21.4183C11.1741 21.1279 11.4484 20.7169 11.566 20.2618L11.8373 18.6495C11.2683 18.5195 10.4845 18.3107 9.99991 18.0535C9.51532 18.31 8.73153 18.5195 8.16253 18.6495L8.43309 20.2618Z" fill="#00365F" stroke="#00365F"/>
<path d="M18.9992 6.23718C18.9992 6.23212 18.9985 6.22779 18.9985 6.22273C18.997 6.20395 18.9947 6.18589 18.9917 6.16783C18.9879 6.14905 18.9827 6.13171 18.9759 6.11365C18.9744 6.10932 18.9729 6.10498 18.9714 6.10065C18.9646 6.08331 18.957 6.0667 18.9487 6.05081C18.9487 6.05008 18.948 6.04936 18.948 6.04864C18.939 6.03203 18.9276 6.01613 18.9163 6.00024C18.9133 5.99663 18.9111 5.99302 18.9081 5.98941C18.896 5.97424 18.8832 5.95907 18.8689 5.94534L13.8406 1.12569C13.8262 1.11197 13.8112 1.09969 13.7953 1.08813C13.7916 1.08524 13.7871 1.08235 13.7833 1.07946C13.7675 1.06863 13.7509 1.05851 13.7335 1.04984C13.732 1.04912 13.7313 1.04912 13.7298 1.0484C13.7132 1.04045 13.6966 1.03323 13.6793 1.02745C13.6748 1.02601 13.6695 1.02384 13.665 1.02239C13.6469 1.01661 13.628 1.01156 13.6092 1.00795C13.6084 1.00795 13.6084 1.00795 13.6077 1.00795C13.5888 1.00433 13.57 1.00217 13.5512 1.00144C13.5459 1.00144 13.5406 1.00072 13.5353 1.00072C13.5301 1.00072 13.5255 1 13.5203 1H1.45219C1.20273 1 1 1.19432 1 1.43342V24.5666C1 24.8057 1.20273 25 1.45219 25H18.5478C18.7973 25 19 24.8057 19 24.5666V6.25235C19 6.24729 18.9992 6.24223 18.9992 6.23718ZM17.4558 5.81893H13.9717V2.47941L17.4558 5.81893ZM1.90437 24.1324V1.86612H13.0673V6.25235C13.0673 6.49145 13.2701 6.68577 13.5195 6.68577H18.0956V24.1324H1.90437Z" fill="#00365F" stroke="#00365F"/>
<path d="M15.6547 9.36391H4.3455C4.09604 9.36391 3.89331 9.1696 3.89331 8.93049C3.89331 8.69139 4.09604 8.49707 4.3455 8.49707H15.6547C15.9041 8.49707 16.1068 8.69139 16.1068 8.93049C16.1068 9.1696 15.9041 9.36391 15.6547 9.36391Z" fill="#00365F" stroke="#00365F"/>
<path d="M15.6547 12.2829H4.3455C4.09604 12.2829 3.89331 12.0885 3.89331 11.8494C3.89331 11.6103 4.09604 11.416 4.3455 11.416H15.6547C15.9041 11.416 16.1068 11.6103 16.1068 11.8494C16.1068 12.0885 15.9041 12.2829 15.6547 12.2829Z" fill="#00365F" stroke="#00365F"/>
<path d="M10.1651 15.2028H4.3455C4.09604 15.2028 3.89331 15.0085 3.89331 14.7694C3.89331 14.5303 4.09604 14.3359 4.3455 14.3359H10.1651C10.4146 14.3359 10.6173 14.5303 10.6173 14.7694C10.6173 15.0085 10.4146 15.2028 10.1651 15.2028Z" fill="#00365F" stroke="#00365F"/>
<path d="M15.6546 15.2028H12.5662C12.3167 15.2028 12.114 15.0085 12.114 14.7694C12.114 14.5303 12.3167 14.3359 12.5662 14.3359H15.6546C15.9041 14.3359 16.1068 14.5303 16.1068 14.7694C16.1068 15.0085 15.9041 15.2028 15.6546 15.2028Z" fill="#00365F" stroke="#00365F"/>
</svg>
