<svg width="18" height="18" viewBox="0 0 18 18" fill="none" xmlns="http://www.w3.org/2000/svg">
<path d="M1.79997 18H10.4578C10.9772 18.0003 11.4905 17.8821 11.9623 17.6537C12.4341 17.4252 12.8533 17.0918 13.1911 16.6765L17.7828 11.0378C17.879 10.9199 17.9461 10.779 17.9783 10.6274C18.0105 10.4757 18.0068 10.3181 17.9675 10.1684C17.9282 10.0186 17.8545 9.88132 17.7529 9.76861C17.6514 9.65589 17.525 9.5712 17.385 9.522L15.6138 8.90053C15.1858 8.75406 14.73 8.72092 14.2869 8.80403C13.8437 8.88715 13.4269 9.08396 13.0732 9.37706L10.2067 11.79L9.65144 10.62C9.35396 9.98932 8.89465 9.45893 8.32553 9.08889C7.75641 8.71886 7.10022 8.52398 6.4313 8.52632H1.79997C0.807287 8.52632 0 9.37611 0 10.4211V16.1053C0 17.1502 0.807287 18 1.79997 18ZM1.79997 10.4211H6.4313C7.11799 10.4211 7.73448 10.8218 8.04137 11.4679L8.44366 12.3158H4.49993V14.2105H9.91244C10.0509 14.2086 10.1871 14.1729 10.3102 14.1063L10.3129 14.1054L10.3165 14.1035H10.3192L10.321 14.1025H10.3246L10.3255 14.1016C10.3336 14.1044 10.3282 14.1006 10.3282 14.1006C10.3372 14.1006 10.33 14.0997 10.33 14.0997H10.3309L10.3327 14.0987L10.3354 14.0978L10.3372 14.0968L10.339 14.0959L10.3417 14.0949L10.3435 14.094C10.3462 14.094 10.3444 14.0931 10.3453 14.0931L10.348 14.0912L10.3498 14.0902L10.3516 14.0893L10.3543 14.0883L10.3561 14.0874H10.357L10.3588 14.0864H10.3597L10.3615 14.0855L10.3633 14.0845C10.3714 14.0836 10.366 14.0836 10.366 14.0836L10.3678 14.0826C10.4025 14.0606 10.4356 14.0359 10.4668 14.0087L14.1982 10.8663C14.434 10.6693 14.7589 10.6077 15.0442 10.7081L15.5455 10.8843L11.8258 15.4535C11.6547 15.658 11.4443 15.8219 11.2084 15.9342C10.9726 16.0466 10.7167 16.1049 10.4578 16.1053H1.79997V10.4211ZM12.5998 8.91066e-06H12.5845C12.4378 0.00190365 11.6791 0.0369562 10.7998 0.667903C9.94394 0.0540088 9.20325 0.00474568 9.02865 0.00095621L9.00165 8.91066e-06H8.99806C8.27717 8.91066e-06 7.59858 0.296535 7.09099 0.831798C6.58159 1.36896 6.2999 2.08232 6.2999 2.84211C6.2999 3.6019 6.58159 4.31527 7.07479 4.83538L10.1473 8.23264C10.2319 8.32501 10.3333 8.39848 10.4454 8.44863C10.5576 8.49878 10.6782 8.52458 10.8 8.52449C10.9219 8.5244 11.0424 8.49842 11.1545 8.44811C11.2666 8.3978 11.3679 8.32419 11.4523 8.23169L14.5087 4.85148C15.019 4.31527 15.2998 3.6019 15.2998 2.84211C15.2998 2.08232 15.0181 1.36896 14.5096 0.832745C14.2597 0.567999 13.9624 0.358075 13.6348 0.215133C13.3073 0.0721906 12.9561 -0.000929046 12.6016 8.91066e-06H12.5998ZM13.4998 2.84211C13.4998 3.09506 13.4062 3.33285 13.2199 3.52895L10.7998 6.20527L8.36357 3.5119C8.19347 3.33285 8.09987 3.09506 8.09987 2.84211C8.09987 2.58917 8.19347 2.35138 8.36446 2.17138C8.52721 1.99711 8.74882 1.89767 8.98096 1.89474C9.00346 1.89569 9.43275 1.92506 9.94124 2.35422C10.0141 2.4158 10.0879 2.4859 10.1635 2.56453L10.7998 3.23432L11.4361 2.56453C11.5117 2.4859 11.5855 2.4158 11.6584 2.35422C12.1345 1.95159 12.5368 1.90138 12.6052 1.89569C12.7225 1.89567 12.8386 1.9201 12.9469 1.96758C13.0552 2.01506 13.1535 2.08465 13.2361 2.17232C13.4062 2.35138 13.4998 2.58917 13.4998 2.84211Z" fill="#00365F"/>
</svg>
