<svg width="27" height="24" viewBox="0 0 27 24" fill="none" xmlns="http://www.w3.org/2000/svg">
<path d="M24.0593 12.7687C24.0576 12.7704 24.056 12.7721 24.0543 12.7738L13.5354 23.2929L3.01132 12.7688L3.01114 12.7686C0.202666 9.96308 0.202672 5.41303 3.01113 2.60759L3.01133 2.60739C4.41436 1.20429 6.25322 0.5 8.09329 0.5C9.9302 0.5 11.7693 1.20423 13.1724 2.60739L13.1724 2.60744L13.1782 2.61306L13.1876 2.62221C13.3832 2.81156 13.6943 2.80968 13.8875 2.618L13.8968 2.60885L13.8984 2.60724C15.5067 0.997479 17.6873 0.310163 19.7863 0.546245L19.8422 0.0493782L19.7863 0.546246C21.3479 0.721857 22.8617 1.40851 24.0591 2.60721L24.0593 2.60742C25.4624 4.01035 26.1667 5.8495 26.1667 7.68967C26.1667 9.52657 25.4625 11.3656 24.0593 12.7687Z" stroke="#CF2D2D" stroke-linecap="round" stroke-linejoin="round"/>
<path d="M10.6149 2.70916C9.78168 2.28742 8.93684 2 8.2601 2C6.72524 2 5.19039 2.58766 4.02016 3.75789C3.18148 4.59559 2.64312 5.61993 2.40479 6.69718" stroke="#F08300" stroke-linecap="round" stroke-linejoin="round"/>
</svg>
