<svg width="20" height="25" viewBox="0 0 20 25" fill="none" xmlns="http://www.w3.org/2000/svg">
<path fill-rule="evenodd" clip-rule="evenodd" d="M10 0.5C15.5139 0.5 20 5.08954 20 10.7314C20 17.6668 12.1745 24.5 10 24.5C7.82545 24.5 0 17.6668 0 10.7314C0 5.08954 4.48606 0.5 10 0.5ZM10 2.34615C5.48848 2.34615 1.81818 6.10861 1.81818 10.7314C1.81818 16.6132 8.63515 22.3437 10 22.6489C11.3648 22.3425 18.1818 16.612 18.1818 10.7314C18.1818 6.10861 14.5115 2.34615 10 2.34615ZM10.0012 6.65385C12.1733 6.65385 13.9406 8.44831 13.9406 10.6551C13.9406 12.8606 12.1733 14.6538 10.0012 14.6538C7.82909 14.6538 6.06182 12.8606 6.06182 10.6551C6.06182 8.44831 7.82909 6.65385 10.0012 6.65385ZM10.0012 8.5C8.83151 8.5 7.88 9.46615 7.88 10.6551C7.88 11.8428 8.83151 12.8077 10.0012 12.8077C11.1709 12.8077 12.1224 11.8428 12.1224 10.6551C12.1224 9.46615 11.1709 8.5 10.0012 8.5Z" fill="#00365F"/>
</svg>
