<svg width="29" height="25" viewBox="0 0 29 25" fill="none" xmlns="http://www.w3.org/2000/svg">
<path fill-rule="evenodd" clip-rule="evenodd" d="M20.9758 0.5C25.4364 0.5 28.8 3.844 28.8 8.27846V16.7314C28.8 19.0009 27.9266 21.0514 26.3393 22.5062C24.9153 23.8095 23.0681 24.5 20.9972 24.5H7.79877C5.73187 24.5 3.88599 23.8108 2.46073 22.5062C0.873377 21.0514 0 19.0009 0 16.7314V8.27846C0 3.844 3.36357 0.5 7.82422 0.5H20.9758ZM20.9758 2.34615H7.82422C4.45529 2.34615 2.0093 4.84092 2.0093 8.27846V16.7314C2.0093 18.5074 2.67371 20.0938 3.87929 21.1978C4.91877 22.1517 6.27572 22.6538 7.80279 22.6538H20.9758C20.9785 22.6514 20.9892 22.6538 20.9972 22.6538C22.5256 22.6538 23.8812 22.1517 24.9207 21.1978C26.1276 20.0938 26.7907 18.5074 26.7907 16.7314V8.27846C26.7907 4.84092 24.3447 2.34615 20.9758 2.34615ZM23.0869 8.04314C23.4365 8.43822 23.3709 9.01914 22.9409 9.3416L16.988 13.7871C16.2352 14.3361 15.335 14.6105 14.4362 14.6105C13.54 14.6105 12.6465 14.3385 11.8991 13.7945L5.89127 9.34406C5.4586 9.02406 5.39163 8.44191 5.73857 8.0456C6.08819 7.65052 6.72045 7.58775 7.15178 7.90652L13.1542 12.3521C13.9084 12.901 14.9706 12.901 15.7302 12.3471L21.6723 7.90899C22.1037 7.58529 22.7359 7.64683 23.0869 8.04314Z" fill="#00365F"/>
</svg>
