<svg width="24" height="25" viewBox="0 0 24 25" fill="none" xmlns="http://www.w3.org/2000/svg">
<path fill-rule="evenodd" clip-rule="evenodd" d="M5.34971 0.500632C6.63282 0.518193 7.54719 1.49807 8.70394 2.73784C8.98996 3.04339 9.29897 3.37704 9.64473 3.72825C11.3207 5.43748 10.844 6.83178 10.4592 7.95097C10.041 9.17201 9.67919 10.2256 11.8456 12.4336C14.0121 14.6415 15.0448 14.2728 16.2417 13.8431C17.3411 13.4521 18.7057 12.9627 20.3851 14.672C20.7263 15.0197 21.0479 15.3311 21.3466 15.6202C22.5677 16.805 23.5326 17.7404 23.5488 19.0516C23.5613 20.1684 22.895 21.3087 21.2501 22.9851L20.5218 22.4817L21.1387 23.094C20.7745 23.4745 19.8062 24.4883 17.9097 24.5H17.8752C15.0126 24.5 11.2805 22.1773 6.78215 17.594C2.26544 12.992 -0.017038 9.1767 9.57475e-05 6.25346C0.0105309 4.3218 1.00416 3.33256 1.37749 2.96145L1.40936 2.92598L1.48662 2.84672C3.13501 1.16676 4.26763 0.476048 5.34971 0.500632ZM5.32789 2.25668H5.3187C4.80286 2.25668 4.01947 2.7835 2.9269 3.8651L2.7075 4.08469L2.70999 4.08415C2.71137 4.08415 2.69124 4.10606 2.65929 4.13927L2.58248 4.21761C2.3045 4.49272 1.72899 5.0652 1.72319 6.26282C1.71406 7.9381 2.79499 11.0486 7.99978 16.3519C13.1793 21.6294 16.2268 22.7439 17.8752 22.7439H17.8993C19.0745 22.7369 19.635 22.1504 19.905 21.8683C19.9865 21.7828 20.0532 21.7184 20.1002 21.6798C21.2455 20.5056 21.8313 19.6334 21.8256 19.0726C21.8187 18.5013 21.1214 17.827 20.1577 16.8916C19.851 16.5954 19.5179 16.2711 19.1663 15.9129C18.2543 14.9869 17.8051 15.1449 16.8115 15.5008C15.4388 15.9913 13.5584 16.6633 10.628 13.6745C7.69652 10.6881 8.35358 8.77163 8.83259 7.37148C9.1795 6.35999 9.33802 5.8999 8.4271 4.97037C8.071 4.60745 7.75051 4.26327 7.45529 3.94718C6.54322 2.97081 5.88501 2.26488 5.32789 2.25668ZM15.2161 4.6654C17.6065 5.13836 19.4525 7.01851 19.9177 9.45591C20.0085 9.93355 19.7041 10.3936 19.2377 10.4861C19.1814 10.4967 19.1263 10.5025 19.0711 10.5025C18.6668 10.5025 18.3072 10.2122 18.2268 9.79307C17.896 8.06043 16.5853 6.72466 14.8875 6.38867C14.42 6.29619 14.1156 5.8361 14.2064 5.35963C14.2971 4.88315 14.7566 4.57174 15.2161 4.6654ZM15.1473 0.507305C19.8317 1.03763 23.4696 4.74056 23.9946 9.51351C24.0474 9.99584 23.7074 10.4302 23.2353 10.484C23.2031 10.4875 23.1698 10.4899 23.1377 10.4899C22.7046 10.4899 22.3324 10.1586 22.283 9.71019C21.8477 5.7579 18.8358 2.69066 14.9566 2.25165C14.4845 2.1978 14.1433 1.76464 14.1961 1.28231C14.2478 0.801151 14.6694 0.446429 15.1473 0.507305Z" fill="#00365F"/>
</svg>
