<svg width="19" height="19" viewBox="0 0 19 19" fill="none" xmlns="http://www.w3.org/2000/svg">
<path d="M14.5586 14.5889C14.9065 14.2433 15.4641 14.2433 15.812 14.5889L18.1112 16.4448H18.1511C18.6163 16.9149 18.6163 17.6772 18.1511 18.1474C17.686 18.6175 16.9318 18.6175 16.4667 18.1474L14.5586 15.9606L14.4862 15.8789C14.3514 15.7082 14.2769 15.4954 14.2769 15.2747C14.2769 15.0173 14.3783 14.7705 14.5586 14.5889ZM8.21988 0.5C10.2673 0.5 12.2309 1.32209 13.6787 2.78543C15.1264 4.24876 15.9398 6.23347 15.9398 8.30293C15.9398 12.6124 12.4834 16.1059 8.21988 16.1059C3.95631 16.1059 0.5 12.6124 0.5 8.30293C0.5 3.99349 3.95631 0.5 8.21988 0.5Z" fill="white"/>
</svg>
