<svg width="18" height="19" viewBox="0 0 18 19" fill="none" xmlns="http://www.w3.org/2000/svg">
<path fill-rule="evenodd" clip-rule="evenodd" d="M12.9006 0.5C15.9507 0.5 18 2.6402 18 5.8244V13.1756C18 16.3598 15.9507 18.5 12.8997 18.5H5.0985C2.0484 18.5 0 16.3598 0 13.1756V5.8244C0 2.6402 2.0484 0.5 5.0985 0.5H12.9006ZM12.9006 1.85H5.0985C2.8215 1.85 1.35 3.4097 1.35 5.8244V13.1756C1.35 15.5903 2.8215 17.15 5.0985 17.15H12.8997C15.1776 17.15 16.65 15.5903 16.65 13.1756V5.8244C16.65 3.4097 15.1776 1.85 12.9006 1.85ZM12.6805 6.8873C12.9443 7.151 12.9443 7.5776 12.6805 7.8413L8.40915 12.1127C8.27775 12.245 8.10495 12.3107 7.93215 12.3107C7.76025 12.3107 7.58655 12.245 7.45515 12.1127L5.31855 9.977C5.05485 9.7133 5.05485 9.2867 5.31855 9.023C5.58225 8.7593 6.00885 8.7593 6.27255 9.023L7.93215 10.6808L11.7266 6.8873C11.9902 6.6236 12.4169 6.6236 12.6805 6.8873Z" fill="#070707"/>
</svg>
