<svg width="76" height="75" viewBox="0 0 76 75" fill="none" xmlns="http://www.w3.org/2000/svg">
<path d="M38 75C17.3146 75 0.5 58.1854 0.5 37.5C0.5 16.8146 17.3146 0 38 0C58.6854 0 75.5 16.8146 75.5 37.5C75.5 58.1854 58.6854 75 38 75ZM38 2.45767C18.6663 2.45767 2.95767 18.1868 2.95767 37.5C2.95767 56.8337 18.6868 72.5423 38 72.5423C57.3337 72.5423 73.0423 56.8132 73.0423 37.5C73.0423 18.1663 57.3337 2.45767 38 2.45767Z" fill="white"/>
<path d="M48.8341 15.5039C48.5884 15.5039 48.3426 15.4425 48.1378 15.2786C38.942 8.95015 28.0873 14.8281 27.9849 14.8895C27.391 15.2172 26.6537 15.0124 26.3055 14.4185C25.9778 13.8245 26.1826 13.0872 26.7765 12.7391C26.8994 12.6776 29.8896 11.0187 34.1496 10.2609C39.8636 9.21639 45.1886 10.2609 49.5305 13.2511C50.0835 13.6402 50.2268 14.398 49.8377 14.951C49.6124 15.3196 49.2233 15.5039 48.8341 15.5039Z" fill="#F08300"/>
<path d="M58.7878 28.3246C58.3781 28.3246 57.989 28.1198 57.7637 27.7716C53.9543 21.8732 48.3222 18.6782 41.0311 18.2686C35.5218 17.9614 31.1389 19.4155 31.098 19.4155C30.4631 19.6408 29.7667 19.2927 29.5414 18.6373C29.3162 18.0024 29.6643 17.306 30.3197 17.0808C30.5245 17.0193 35.1941 15.4628 41.1744 15.811C49.1824 16.2615 55.6337 19.948 59.8323 26.4404C60.2009 27.0138 60.0371 27.7716 59.4636 28.1403C59.2588 28.2632 59.013 28.3246 58.7878 28.3246Z" fill="#F08300"/>
<path d="M48.2607 63.2441C47.9944 63.2441 47.7282 63.1622 47.5029 62.9779C46.9704 62.5683 46.868 61.79 47.2981 61.2575C47.4005 61.1346 57.354 48.3343 57.2721 41.3299C57.2516 38.7084 57.1083 35.9435 55.777 33.6087C50.0629 23.5118 43.8573 22.5082 36.259 24.1057C27.2271 26.0104 21.3696 18.8831 21.1238 18.5964C20.6937 18.0639 20.7757 17.2856 21.3082 16.876C21.8407 16.4459 22.6189 16.5279 23.0285 17.0604C23.2538 17.3266 28.2306 23.3069 35.747 21.7095C40.519 20.7059 44.1031 20.8288 47.4005 22.1191C51.4556 23.6961 54.8964 27.0549 57.907 32.4003C59.525 35.2471 59.6888 38.5036 59.7093 41.3094C59.7912 49.174 49.6329 62.2406 49.2028 62.7936C48.998 63.0803 48.6293 63.2441 48.2607 63.2441Z" fill="#F08300"/>
<path d="M14.5495 36.7423C13.9761 36.7423 13.464 36.3531 13.3412 35.7592C13.1978 35.1038 13.6279 34.4484 14.3037 34.3051C19.1781 33.281 22.2502 30.0451 22.2912 30.0246C22.3321 29.9837 22.3731 29.9427 22.4141 29.9017C23.1514 29.3078 24.3392 28.1814 24.114 27.2597C23.7453 25.7442 20.0383 24.3515 17.6421 23.8804C16.9867 23.7575 16.5361 23.1022 16.6795 22.4468C16.8024 21.7914 17.4578 21.3408 18.1131 21.4842C19.3625 21.73 25.609 23.1226 26.4897 26.6863C26.9198 28.3657 26.0801 30.0861 24.0116 31.7859C23.4995 32.3184 20.0793 35.6363 14.7953 36.7218C14.7134 36.7218 14.6314 36.7423 14.5495 36.7423Z" fill="#F08300"/>
<path d="M17.4576 30.5161C16.495 30.5161 15.7167 30.3113 15.5529 30.2703C14.8975 30.086 14.5084 29.4101 14.6927 28.7547C14.877 28.0994 15.5529 27.7102 16.1878 27.8946C16.7817 28.0584 18.2154 28.2222 18.8503 27.6897C19.3623 27.2597 20.1406 27.3211 20.5911 27.8536C21.0212 28.3656 20.9598 29.1439 20.4273 29.5944C19.5466 30.3317 18.4202 30.5161 17.4576 30.5161Z" fill="#F08300"/>
<path d="M37.7747 66.3778C37.5084 66.3778 37.2217 66.2958 36.9964 66.1115C36.4639 65.6814 36.382 64.9031 36.8121 64.3911C36.9349 64.2478 48.9161 49.3993 51.2509 44.5045C53.5038 39.7939 49.2643 33.404 44.0622 29.185C39.8842 25.7852 34.1496 28.2838 26.5103 36.8038C20.2637 43.7672 14.3448 41.6577 14.0991 41.5553C13.4642 41.3095 13.1365 40.6132 13.3822 39.9783C13.628 39.3434 14.3244 39.0157 14.9593 39.2614C15.1641 39.3434 19.6288 40.7975 24.6875 35.1653C28.3331 31.0897 31.569 28.3658 34.5797 26.7888C38.7987 24.5973 42.5262 24.7612 45.6187 27.2803C48.8137 29.8813 51.3943 32.9944 52.8689 36.0255C54.5688 39.5482 54.794 42.8455 53.4833 45.5899C51.0256 50.7511 39.2288 65.3332 38.7372 65.9681C38.4915 66.2139 38.1433 66.3778 37.7747 66.3778Z" fill="#F08300"/>
<path d="M32.0193 65.0464C31.6916 65.0464 31.3434 64.9031 31.0976 64.6368C30.6471 64.1248 30.688 63.3465 31.2 62.896C36.8117 57.8782 50.3084 43.4189 45.4136 36.9061C43.2836 34.0593 41.2151 32.6256 39.2489 32.6256C39.2489 32.6256 39.2489 32.6256 39.2284 32.6256C36.1973 32.6256 33.2481 36.0868 31.0157 39.0975C26.4076 45.3236 16.6383 48.2728 16.2287 48.3957C15.5733 48.58 14.8975 48.2114 14.6927 47.556C14.5083 46.9006 14.877 46.2247 15.5324 46.0199C15.6552 45.979 24.933 43.1731 29.0496 37.6229C31.7735 33.9364 35.1323 30.1679 39.2284 30.1475H39.2489C42.0752 30.1475 44.7172 31.8678 47.3797 35.411C50.4928 39.5685 48.9158 45.8356 42.6692 54.0279C38.2249 59.8648 33.0433 64.5139 32.8385 64.6982C32.6132 64.944 32.3265 65.0464 32.0193 65.0464Z" fill="#F08300"/>
<path d="M26.715 63.2852C26.3668 63.2852 26.0187 63.1418 25.7729 62.8551C25.3428 62.3431 25.4042 61.5648 25.9162 61.1143C25.9777 61.0733 31.8966 55.9941 38.3685 48.2115C40.8671 45.2213 41.9731 42.7022 41.543 40.9409C41.2562 39.7325 40.2117 38.7494 38.3685 37.9507C37.2011 37.4387 35.3988 39.753 33.3098 42.436C32.2243 43.8286 30.9954 45.4056 29.6028 46.9417C24.7284 52.2666 18.5637 53.475 18.2975 53.516C17.6216 53.6388 16.9867 53.2087 16.8638 52.5329C16.7409 51.857 17.171 51.2221 17.8469 51.0992C17.9288 51.0788 23.4995 49.9728 27.78 45.2828C29.1112 43.8082 30.3196 42.2926 31.3641 40.9409C32.6953 39.241 33.8422 37.7459 34.9892 36.7628C35.5421 36.2713 37.2625 34.7967 39.3515 35.6978C41.9526 36.8243 43.4477 38.3603 43.9392 40.3674C44.5536 42.9889 43.3453 46.061 40.2527 49.768C33.617 57.7145 27.739 62.7527 27.4933 62.9575C27.2884 63.1828 27.0017 63.2852 26.715 63.2852Z" fill="#F08300"/>
<path d="M21.6358 58.8612C21.1648 58.8612 20.7347 58.595 20.5094 58.1444C20.2227 57.53 20.4889 56.7927 21.1033 56.5059C21.2057 56.465 31.8352 51.4472 36.8939 41.3708C37.2011 40.7564 37.9384 40.5106 38.5528 40.8178C39.1672 41.125 39.413 41.8623 39.1058 42.4563C33.658 53.3315 22.6189 58.5131 22.1479 58.7179C21.984 58.8203 21.7997 58.8612 21.6358 58.8612Z" fill="#F08300"/>
</svg>
