<svg width="76" height="75" viewBox="0 0 76 75" fill="none" xmlns="http://www.w3.org/2000/svg">
<path d="M16.4238 64.0288H2.42974C1.61109 64.0288 0.946655 63.3644 0.946655 62.5458C0.946655 61.7271 1.61109 61.0627 2.42974 61.0627H16.4238C17.2424 61.0627 17.9069 61.7271 17.9069 62.5458C17.9069 63.3644 17.2424 64.0288 16.4238 64.0288ZM16.4238 47.2795H2.42974C1.61109 47.2795 0.946655 46.6151 0.946655 45.7964C0.946655 44.9778 1.61109 44.3133 2.42974 44.3133H16.4238C17.2424 44.3133 17.9069 44.9778 17.9069 45.7964C17.9069 46.6151 17.2424 47.2795 16.4238 47.2795ZM16.4238 30.3692H2.42974C1.61109 30.3692 0.946655 29.7048 0.946655 28.8861C0.946655 28.0675 1.61109 27.403 2.42974 27.403H16.4238C17.2424 27.403 17.9069 28.0675 17.9069 28.8861C17.9069 29.7048 17.2424 30.3692 16.4238 30.3692ZM16.4238 13.9374H2.42974C1.61109 13.9374 0.946655 13.2729 0.946655 12.4543C0.946655 11.6356 1.61109 10.9712 2.42974 10.9712H16.4238C17.2424 10.9712 17.9069 11.6356 17.9069 12.4543C17.9069 13.2729 17.2424 13.9374 16.4238 13.9374Z" fill="#98BDFF"/>
<path d="M73.6723 64.0288H59.6783C58.8596 64.0288 58.1952 63.3644 58.1952 62.5458C58.1952 61.7271 58.8596 61.0627 59.6783 61.0627H73.6723C74.491 61.0627 75.1554 61.7271 75.1554 62.5458C75.1554 63.3644 74.491 64.0288 73.6723 64.0288ZM73.6723 47.2795H59.6783C58.8596 47.2795 58.1952 46.6151 58.1952 45.7964C58.1952 44.9778 58.8596 44.3133 59.6783 44.3133H73.6723C74.491 44.3133 75.1554 44.9778 75.1554 45.7964C75.1554 46.6151 74.491 47.2795 73.6723 47.2795ZM73.6723 30.3692H59.6783C58.8596 30.3692 58.1952 29.7048 58.1952 28.8861C58.1952 28.0675 58.8596 27.403 59.6783 27.403H73.6723C74.491 27.403 75.1554 28.0675 75.1554 28.8861C75.1554 29.7048 74.491 30.3692 73.6723 30.3692ZM73.6723 13.9374H59.6783C58.8596 13.9374 58.1952 13.2729 58.1952 12.4543C58.1952 11.6356 58.8596 10.9712 59.6783 10.9712H73.6723C74.491 10.9712 75.1554 11.6356 75.1554 12.4543C75.1554 13.2729 74.491 13.9374 73.6723 13.9374Z" fill="#98BDFF"/>
<path d="M16.4509 64.0083C16.0585 64.0083 15.6798 63.8518 15.4032 63.5752C15.1242 63.2962 14.9678 62.9198 14.9678 62.5252V12.5789C14.9678 11.7602 15.6299 11.0958 16.4486 11.0958L59.7233 11.03H59.7256C60.1179 11.03 60.4966 11.1865 60.7733 11.4632C61.0522 11.7421 61.2087 12.1185 61.2087 12.5131L61.2223 62.4595C61.2223 63.2781 60.5601 63.9425 59.7415 63.9448L16.4509 64.0083C16.4531 64.0083 16.4509 64.0083 16.4509 64.0083ZM17.9339 14.0597V61.0376L58.2539 60.9764L58.2402 14.0007L17.9339 14.0597Z" fill="#98BDFF"/>
<path d="M34.2346 48.9214C34.0464 48.9214 33.8559 48.8851 33.6745 48.8125C33.1144 48.5857 32.7493 48.0415 32.7493 47.4383V27.9314C32.7493 27.335 33.1076 26.7953 33.6564 26.564C34.2074 26.3327 34.8424 26.4529 35.2687 26.8679L45.0221 36.3764C45.3033 36.6508 45.4643 37.0272 45.4711 37.4195C45.4757 37.8141 45.3237 38.1928 45.0493 38.474L35.2959 48.4724C35.0124 48.7672 34.6269 48.9214 34.2346 48.9214ZM35.7177 31.4509V43.7918L41.8881 37.4672L35.7177 31.4509Z" fill="white"/>
<path d="M1.98535 63.938C1.59077 63.938 1.21433 63.7815 0.9354 63.5026C0.656472 63.2237 0.5 62.8472 0.5 62.4526V12.5086C0.5 11.6899 1.16444 11.0255 1.98308 11.0255L74.001 10.9915C74.3956 10.9915 74.7721 11.1479 75.051 11.4269C75.3299 11.7058 75.4864 12.0822 75.4864 12.4768L75.5 62.4232C75.5 63.2418 74.8356 63.9062 74.0169 63.9085L1.98535 63.938ZM3.4707 13.9916V60.9696L72.5316 60.9378L72.5202 13.9599L3.4707 13.9916Z" fill="#98BDFF"/>
</svg>
