<svg width="54" height="75" viewBox="0 0 54 75" fill="none" xmlns="http://www.w3.org/2000/svg">
<path d="M27.0001 68.7471C26.7043 68.7471 26.4109 68.65 26.1648 68.4581L22.9503 65.9411C21.3114 64.6363 20.1466 62.8056 19.6612 60.7784C19.6522 60.7446 19.6477 60.713 19.6409 60.6791L18.6183 54.329C18.5032 53.6157 18.9682 52.9385 19.6748 52.7895C22.5507 52.1822 25.5034 51.2228 25.9955 50.7375C26.2529 50.4508 26.6163 50.2905 27.0023 50.2905C27.3861 50.2905 27.7518 50.4576 28.0069 50.7443C28.4945 51.2251 31.4471 52.1845 34.3208 52.7917C35.0274 52.9407 35.4924 53.6179 35.3773 54.3313L34.3547 60.6814C34.3502 60.7152 34.3434 60.7491 34.3344 60.7807C33.849 62.8078 32.6842 64.6408 31.0521 65.9388L27.8308 68.4649C27.5892 68.6523 27.2958 68.7471 27.0001 68.7471ZM22.3069 60.1938C22.6591 61.6182 23.483 62.9004 24.6298 63.8146L27.0001 65.6725L29.3771 63.8079C30.5171 62.9004 31.3388 61.6159 31.6909 60.1938L32.5036 55.1552C30.7993 54.7489 28.4516 54.0965 27.0001 53.2929C25.5485 54.0943 23.2008 54.7489 21.4965 55.1552L22.3069 60.1938Z" fill="#F08300"/>
<path d="M53.9557 16.3662C53.9557 16.3504 53.9534 16.3368 53.9534 16.321C53.9489 16.2623 53.9421 16.2059 53.9331 16.1495C53.9218 16.0908 53.906 16.0366 53.8857 15.9802C53.8812 15.9666 53.8767 15.9531 53.8722 15.9395C53.8518 15.8854 53.8293 15.8334 53.8044 15.7838C53.8044 15.7815 53.8022 15.7793 53.8022 15.777C53.7751 15.7251 53.7412 15.6754 53.7074 15.6258C53.6983 15.6145 53.6916 15.6032 53.6825 15.5919C53.6464 15.5445 53.608 15.4971 53.5652 15.4542L38.5038 0.392789C38.4609 0.349898 38.4157 0.311522 38.3683 0.275404C38.357 0.266374 38.3435 0.257345 38.3322 0.248315C38.2848 0.214454 38.2351 0.18285 38.1832 0.155761C38.1787 0.153504 38.1764 0.153504 38.1719 0.151247C38.1223 0.126415 38.0726 0.103841 38.0207 0.0857816C38.0071 0.0812668 37.9913 0.0744947 37.9778 0.0699798C37.9236 0.0519206 37.8672 0.0361186 37.8107 0.0248316C37.8085 0.0248316 37.8085 0.0248316 37.8062 0.0248316C37.7498 0.0135446 37.6933 0.00677232 37.6369 0.00451491C37.6211 0.00451491 37.6053 0.00225789 37.5895 0.00225789C37.5737 0.00225789 37.5602 0 37.5444 0H1.39656C0.649356 0 0.0421143 0.607242 0.0421143 1.35444V73.6456C0.0421143 74.3928 0.649356 75 1.39656 75H52.6035C53.3507 75 53.9579 74.3928 53.9579 73.6456V16.4136C53.9579 16.3978 53.9557 16.382 53.9557 16.3662ZM49.3325 15.0591H38.8965V4.62316L49.3325 15.0591ZM2.751 72.2889V2.70663H36.1877V16.4136C36.1877 17.1608 36.7949 17.768 37.5421 17.768H51.2491V72.2889H2.751Z" fill="white"/>
<path d="M43.9374 26.1361H10.0628C9.31555 26.1361 8.70831 25.5289 8.70831 24.7817C8.70831 24.0345 9.31555 23.4272 10.0628 23.4272H43.9374C44.6846 23.4272 45.2918 24.0345 45.2918 24.7817C45.2918 25.5289 44.6846 26.1361 43.9374 26.1361Z" fill="white"/>
<path d="M43.9373 35.2582H10.0627C9.31549 35.2582 8.70825 34.651 8.70825 33.9038C8.70825 33.1566 9.31549 32.5493 10.0627 32.5493H43.9373C44.6845 32.5493 45.2917 33.1566 45.2917 33.9038C45.2917 34.651 44.6845 35.2582 43.9373 35.2582Z" fill="white"/>
<path d="M27.4944 44.3827H10.0627C9.31549 44.3827 8.70825 43.7755 8.70825 43.0283C8.70825 42.2811 9.31549 41.6738 10.0627 41.6738H27.4944C28.2416 41.6738 28.8488 42.2811 28.8488 43.0283C28.8488 43.7755 28.2416 44.3827 27.4944 44.3827Z" fill="white"/>
<path d="M43.9373 44.3827H34.6865C33.9393 44.3827 33.332 43.7755 33.332 43.0283C33.332 42.2811 33.9393 41.6738 34.6865 41.6738H43.9373C44.6845 41.6738 45.2918 42.2811 45.2918 43.0283C45.2918 43.7755 44.6845 44.3827 43.9373 44.3827Z" fill="white"/>
</svg>
